<svg width="902" height="139" viewBox="0 0 902 139" fill="none" xmlns="http://www.w3.org/2000/svg">
<rect width="902" height="139" fill="white"/>
<path d="M88.9219 43.5156H95.0059L72.8574 95.8105H66.7734L88.9219 43.5156ZM102.423 83.7109C101.671 82.4121 101.067 80.8854 100.611 79.1309C100.178 77.3763 99.9619 75.0863 99.9619 72.2607C99.9619 69.4352 100.566 66.8376 101.773 64.4678C103.004 62.0752 104.599 60.1156 106.559 58.5889C110.364 55.6494 115.092 54.1797 120.743 54.1797C123.683 54.1797 125.904 54.248 127.408 54.3848C127.408 54.3848 128.513 54.4987 130.724 54.7266V90H124.571L124.298 85.9326C122.931 87.7555 120.846 89.1113 118.043 90C116.972 90.3418 115.867 90.5127 114.728 90.5127C113.611 90.5127 112.506 90.3988 111.412 90.1709C110.318 89.943 109.225 89.5671 108.131 89.043C107.06 88.5189 106.035 87.8239 105.055 86.958C104.075 86.0693 103.198 84.987 102.423 83.7109ZM123.888 59.751C122.429 59.5687 120.971 59.4775 119.513 59.4775C118.077 59.4775 116.539 59.7396 114.898 60.2637C113.258 60.765 111.856 61.5625 110.694 62.6562C108.279 64.9349 107.071 68.4098 107.071 73.0811C107.071 77.5016 108.108 80.7715 110.182 82.8906C111.754 84.4629 113.645 85.249 115.855 85.249C118.704 85.249 121.051 84.2122 122.896 82.1387C123.352 81.6146 123.683 81.1475 123.888 80.7373V59.751ZM164.664 81.3525V54.7266H171.5V90H165.348L164.732 86.2744C161.36 89.1227 157.634 90.5469 153.556 90.5469C149.226 90.5469 146.161 89.3506 144.361 86.958C142.493 84.5199 141.559 80.3158 141.559 74.3457V54.7266H148.395V74.0039C148.395 78.2194 148.998 81.0905 150.206 82.6172C151.277 83.9844 153.316 84.668 156.324 84.668C159.355 84.668 162.135 83.5628 164.664 81.3525ZM195.221 84.5996C195.973 84.873 197.112 85.0098 198.639 85.0098C200.165 85.0098 201.441 84.8275 202.467 84.4629V89.9316C201.988 90.0456 201.293 90.1139 200.382 90.1367L198.229 90.2051C197.75 90.2051 197.385 90.2051 197.135 90.2051C192.737 90.2051 189.49 88.7695 187.394 85.8984C185.707 83.5742 184.864 80.498 184.864 76.6699V59.9561H179.806V56.7432L184.864 54.7266L186.505 45.9766H191.7V54.7266H202.638V59.9561H191.7V76.6357C191.7 81.1019 192.874 83.7565 195.221 84.5996ZM209.439 72.2949C209.439 66.7578 211.205 62.2689 214.737 58.8281C218.041 55.6152 222.132 54.0088 227.008 54.0088C231.793 54.0088 235.792 55.6152 239.005 58.8281C242.423 62.2461 244.132 66.735 244.132 72.2949C244.132 77.832 242.411 82.2982 238.971 85.6934C235.712 88.929 231.713 90.5469 226.974 90.5469C222.166 90.5469 218.087 88.929 214.737 85.6934C211.205 82.2982 209.439 77.832 209.439 72.2949ZM216.549 72.2949C216.549 78.1283 218.417 82.0931 222.154 84.1895C223.476 84.9186 225.06 85.2832 226.905 85.2832C228.751 85.2832 230.312 84.9186 231.588 84.1895C232.864 83.4375 233.912 82.4577 234.732 81.25C236.259 78.9258 237.022 75.9408 237.022 72.2949C237.022 66.5072 235.188 62.5423 231.52 60.4004C230.243 59.6484 228.717 59.2725 226.939 59.2725C225.162 59.2725 223.613 59.6484 222.291 60.4004C220.992 61.1296 219.921 62.098 219.078 63.3057C217.392 65.6755 216.549 68.6719 216.549 72.2949ZM274.962 60.9814C273.709 60.6169 272.205 60.4346 270.45 60.4346C268.718 60.4346 267.294 60.6169 266.178 60.9814C265.061 61.3232 264.081 61.7448 263.238 62.2461C261.689 63.1576 260.561 64.1829 259.854 65.3223V90H253.019V54.7266H259.581L259.854 59.6143C261.563 57.4723 264.059 55.8659 267.34 54.7949C268.525 54.3848 269.881 54.1797 271.407 54.1797C272.934 54.1797 274.119 54.2936 274.962 54.5215V60.9814ZM298.204 90.5469C285.307 90.5469 278.858 84.2464 278.858 71.6455C278.858 66.2223 280.647 61.8815 284.225 58.623C287.438 55.6608 291.106 54.1797 295.23 54.1797C299.719 54.1797 303.229 55.6836 305.758 58.6914C308.105 61.4941 309.278 65.2425 309.278 69.9365V72.6025H285.968C285.968 79.0511 288.6 82.9932 293.863 84.4287C295.117 84.7705 297.042 84.9414 299.64 84.9414C302.26 84.9414 304.824 84.5882 307.33 83.8818V89.6582C304.824 90.2507 301.782 90.5469 298.204 90.5469ZM302.442 67.5781C302.442 65.3906 301.839 63.5449 300.631 62.041C299.218 60.3092 297.27 59.4434 294.786 59.4434C292.166 59.4434 290.035 60.2751 288.395 61.9385C286.891 63.488 286.139 65.3678 286.139 67.5781H302.442ZM325.445 90.5469C322.597 90.5469 319.715 90.3418 316.798 89.9316V83.8818C319.76 84.5882 322.768 84.9414 325.821 84.9414C331.928 84.9414 334.981 83.654 334.981 81.0791C334.981 80.0993 334.742 79.3701 334.264 78.8916C333.557 78.1396 332.441 77.3877 330.914 76.6357L325.924 74.3457C322.688 72.7279 320.592 71.429 319.635 70.4492C317.835 68.6263 316.935 66.4616 316.935 63.9551C316.935 61.1296 318.245 58.8281 320.865 57.0508C323.691 55.1367 327.656 54.1797 332.76 54.1797C335.335 54.1797 337.932 54.362 340.553 54.7266V60.5713C337.682 60.0472 335.175 59.7852 333.033 59.7852C330.914 59.7852 329.262 59.9219 328.077 60.1953C326.915 60.4688 326.038 60.8105 325.445 61.2207C324.511 61.8587 324.044 62.6904 324.044 63.7158C324.044 64.7184 324.363 65.5387 325.001 66.1768C325.662 66.792 326.687 67.4642 328.077 68.1934L333.102 70.6201C336.383 72.3291 338.491 73.6393 339.425 74.5508C341.202 76.2826 342.091 78.4587 342.091 81.0791C342.091 83.8818 340.678 86.1377 337.853 87.8467C334.89 89.6468 330.755 90.5469 325.445 90.5469ZM368.272 90.5469C355.375 90.5469 348.927 84.2464 348.927 71.6455C348.927 66.2223 350.715 61.8815 354.293 58.623C357.506 55.6608 361.174 54.1797 365.299 54.1797C369.788 54.1797 373.297 55.6836 375.826 58.6914C378.173 61.4941 379.347 65.2425 379.347 69.9365V72.6025H356.036C356.036 79.0511 358.668 82.9932 363.932 84.4287C365.185 84.7705 367.11 84.9414 369.708 84.9414C372.328 84.9414 374.892 84.5882 377.398 83.8818V89.6582C374.892 90.2507 371.85 90.5469 368.272 90.5469ZM372.511 67.5781C372.511 65.3906 371.907 63.5449 370.699 62.041C369.286 60.3092 367.338 59.4434 364.854 59.4434C362.234 59.4434 360.104 60.2751 358.463 61.9385C356.959 63.488 356.207 65.3678 356.207 67.5781H372.511ZM388.438 83.7109C387.687 82.4121 387.083 80.8854 386.627 79.1309C386.194 77.3763 385.978 75.0863 385.978 72.2607C385.978 69.4352 386.581 66.8376 387.789 64.4678C389.02 62.0752 390.615 60.1156 392.574 58.5889C396.38 55.6494 401.108 54.1797 406.759 54.1797C409.698 54.1797 411.92 54.248 413.424 54.3848C413.424 54.3848 414.529 54.4987 416.739 54.7266V90H410.587L410.313 85.9326C408.946 87.7555 406.861 89.1113 404.059 90C402.988 90.3418 401.882 90.5127 400.743 90.5127C399.627 90.5127 398.521 90.3988 397.428 90.1709C396.334 89.943 395.24 89.5671 394.146 89.043C393.076 88.5189 392.05 87.8239 391.07 86.958C390.09 86.0693 389.213 84.987 388.438 83.7109ZM409.903 59.751C408.445 59.5687 406.987 59.4775 405.528 59.4775C404.093 59.4775 402.555 59.7396 400.914 60.2637C399.273 60.765 397.872 61.5625 396.71 62.6562C394.295 64.9349 393.087 68.4098 393.087 73.0811C393.087 77.5016 394.124 80.7715 396.197 82.8906C397.77 84.4629 399.661 85.249 401.871 85.249C404.719 85.249 407.066 84.2122 408.912 82.1387C409.368 81.6146 409.698 81.1475 409.903 80.7373V59.751ZM450.099 60.9814C448.845 60.6169 447.341 60.4346 445.587 60.4346C443.855 60.4346 442.431 60.6169 441.314 60.9814C440.198 61.3232 439.218 61.7448 438.375 62.2461C436.826 63.1576 435.698 64.1829 434.991 65.3223V90H428.155V54.7266H434.718L434.991 59.6143C436.7 57.4723 439.195 55.8659 442.477 54.7949C443.661 54.3848 445.017 54.1797 446.544 54.1797C448.071 54.1797 449.256 54.2936 450.099 54.5215V60.9814ZM482.193 89.8975C480.826 90.3304 478.456 90.5469 475.084 90.5469C471.712 90.5469 468.84 90.1367 466.471 89.3164C464.124 88.4961 462.118 87.2884 460.455 85.6934C457.014 82.3893 455.294 77.8092 455.294 71.9531C455.294 66.2793 457.356 61.8132 461.48 58.5547C465.172 55.638 469.706 54.1797 475.084 54.1797C478.411 54.1797 480.689 54.2936 481.92 54.5215V60.6055C480.006 59.9902 477.818 59.6826 475.357 59.6826C472.919 59.6826 470.891 60.0244 469.273 60.708C467.656 61.3688 466.334 62.2689 465.309 63.4082C463.372 65.5729 462.403 68.4212 462.403 71.9531C462.403 77.9232 464.557 81.8994 468.863 83.8818C470.39 84.5882 471.882 84.9414 473.341 84.9414C474.799 84.9414 475.916 84.9072 476.69 84.8389C477.488 84.7705 478.24 84.6794 478.946 84.5654C480.45 84.3148 481.533 84.0527 482.193 83.7793V89.8975ZM507.657 60.0586C504.285 60.0586 501.277 61.2093 498.634 63.5107V90H491.798V39.1406H498.634V58.5205C502.325 55.6266 506.142 54.1797 510.084 54.1797C514.299 54.1797 517.387 55.4329 519.347 57.9395C521.397 60.5827 522.423 64.8438 522.423 70.7227V90H515.587V70.7227C515.587 65.0716 514.049 61.6992 510.973 60.6055C509.993 60.2409 508.888 60.0586 507.657 60.0586Z" fill="#528EDB"/>
<path d="M533.121 67.0312H556.363V72.2949H533.121V67.0312Z" fill="#7FB4F9"/>
<path d="M562.789 54.7266H570.069L579.127 82.7539L588.287 54.7266H595.396L604.659 82.6514L613.272 54.7266H620.04L608.18 90H601.139L591.637 63.2715L582.647 90H575.606L562.789 54.7266ZM648.341 60.9814C647.088 60.6169 645.584 60.4346 643.829 60.4346C642.097 60.4346 640.673 60.6169 639.557 60.9814C638.44 61.3232 637.46 61.7448 636.617 62.2461C635.068 63.1576 633.94 64.1829 633.233 65.3223V90H626.397V54.7266H632.96L633.233 59.6143C634.942 57.4723 637.438 55.8659 640.719 54.7949C641.904 54.3848 643.259 54.1797 644.786 54.1797C646.313 54.1797 647.498 54.2936 648.341 54.5215V60.9814ZM656.681 83.7109C655.929 82.4121 655.325 80.8854 654.869 79.1309C654.436 77.3763 654.22 75.0863 654.22 72.2607C654.22 69.4352 654.824 66.8376 656.031 64.4678C657.262 62.0752 658.857 60.1156 660.816 58.5889C664.622 55.6494 669.35 54.1797 675.001 54.1797C677.94 54.1797 680.162 54.248 681.666 54.3848C681.666 54.3848 682.771 54.4987 684.981 54.7266V90H678.829L678.556 85.9326C677.188 87.7555 675.104 89.1113 672.301 90C671.23 90.3418 670.125 90.5127 668.985 90.5127C667.869 90.5127 666.764 90.3988 665.67 90.1709C664.576 89.943 663.482 89.5671 662.389 89.043C661.318 88.5189 660.292 87.8239 659.312 86.958C658.333 86.0693 657.455 84.987 656.681 83.7109ZM678.146 59.751C676.687 59.5687 675.229 59.4775 673.771 59.4775C672.335 59.4775 670.797 59.7396 669.156 60.2637C667.516 60.765 666.114 61.5625 664.952 62.6562C662.537 64.9349 661.329 68.4098 661.329 73.0811C661.329 77.5016 662.366 80.7715 664.439 82.8906C666.012 84.4629 667.903 85.249 670.113 85.249C672.962 85.249 675.309 84.2122 677.154 82.1387C677.61 81.6146 677.94 81.1475 678.146 80.7373V59.751ZM703.268 103.672H696.432V54.7266H702.584L702.857 58.7598C704.225 56.9368 706.321 55.5811 709.146 54.6924C710.24 54.3506 711.345 54.1797 712.462 54.1797C713.601 54.1797 714.718 54.305 715.812 54.5557C716.905 54.7835 717.988 55.1709 719.059 55.7178C720.13 56.2419 721.155 56.9482 722.135 57.8369C723.115 58.7028 723.98 59.7852 724.732 61.084C726.373 63.8867 727.193 67.3617 727.193 71.5088C727.193 77.8434 725.006 82.6855 720.631 86.0352C716.757 89.0202 712.04 90.5127 706.48 90.5127H704.771C704.225 90.5127 703.723 90.5013 703.268 90.4785V103.672ZM703.268 84.9414C703.906 85.1237 705.159 85.2148 707.027 85.2148C708.896 85.2148 710.65 84.9528 712.291 84.4287C713.932 83.9046 715.322 83.0957 716.461 82.002C718.876 79.6777 720.084 76.18 720.084 71.5088C720.084 67.111 719.036 63.8639 716.939 61.7676C715.39 60.2181 713.499 59.4434 711.266 59.4434C708.463 59.4434 706.139 60.4801 704.293 62.5537C703.814 63.0778 703.473 63.5449 703.268 63.9551V84.9414ZM744.146 103.672H737.311V54.7266H743.463L743.736 58.7598C745.104 56.9368 747.2 55.5811 750.025 54.6924C751.119 54.3506 752.224 54.1797 753.341 54.1797C754.48 54.1797 755.597 54.305 756.69 54.5557C757.784 54.7835 758.867 55.1709 759.938 55.7178C761.008 56.2419 762.034 56.9482 763.014 57.8369C763.993 58.7028 764.859 59.7852 765.611 61.084C767.252 63.8867 768.072 67.3617 768.072 71.5088C768.072 77.8434 765.885 82.6855 761.51 86.0352C757.636 89.0202 752.919 90.5127 747.359 90.5127H745.65C745.104 90.5127 744.602 90.5013 744.146 90.4785V103.672ZM744.146 84.9414C744.785 85.1237 746.038 85.2148 747.906 85.2148C749.775 85.2148 751.529 84.9528 753.17 84.4287C754.811 83.9046 756.201 83.0957 757.34 82.002C759.755 79.6777 760.963 76.18 760.963 71.5088C760.963 67.111 759.915 63.8639 757.818 61.7676C756.269 60.2181 754.378 59.4434 752.145 59.4434C749.342 59.4434 747.018 60.4801 745.172 62.5537C744.693 63.0778 744.352 63.5449 744.146 63.9551V84.9414ZM794.151 90.5469C781.254 90.5469 774.806 84.2464 774.806 71.6455C774.806 66.2223 776.594 61.8815 780.172 58.623C783.385 55.6608 787.053 54.1797 791.178 54.1797C795.667 54.1797 799.176 55.6836 801.705 58.6914C804.052 61.4941 805.226 65.2425 805.226 69.9365V72.6025H781.915C781.915 79.0511 784.547 82.9932 789.811 84.4287C791.064 84.7705 792.989 84.9414 795.587 84.9414C798.207 84.9414 800.771 84.5882 803.277 83.8818V89.6582C800.771 90.2507 797.729 90.5469 794.151 90.5469ZM798.39 67.5781C798.39 65.3906 797.786 63.5449 796.578 62.041C795.165 60.3092 793.217 59.4434 790.733 59.4434C788.113 59.4434 785.982 60.2751 784.342 61.9385C782.838 63.488 782.086 65.3678 782.086 67.5781H798.39ZM835.167 60.9814C833.914 60.6169 832.41 60.4346 830.655 60.4346C828.924 60.4346 827.499 60.6169 826.383 60.9814C825.266 61.3232 824.286 61.7448 823.443 62.2461C821.894 63.1576 820.766 64.1829 820.06 65.3223V90H813.224V54.7266H819.786L820.06 59.6143C821.769 57.4723 824.264 55.8659 827.545 54.7949C828.73 54.3848 830.086 54.1797 831.612 54.1797C833.139 54.1797 834.324 54.2936 835.167 54.5215V60.9814Z" fill="#E32C2F"/>
</svg>
