<svg width="902" height="158" viewBox="0 0 902 158" fill="none" xmlns="http://www.w3.org/2000/svg">
<rect width="902" height="158" fill="white"/>
<path d="M88.9219 43.5156H95.0059L72.8574 95.8105H66.7734L88.9219 43.5156ZM102.423 83.7109C101.671 82.4121 101.067 80.8854 100.611 79.1309C100.178 77.3763 99.9619 75.0863 99.9619 72.2607C99.9619 69.4352 100.566 66.8376 101.773 64.4678C103.004 62.0752 104.599 60.1156 106.559 58.5889C110.364 55.6494 115.092 54.1797 120.743 54.1797C123.683 54.1797 125.904 54.248 127.408 54.3848C127.408 54.3848 128.513 54.4987 130.724 54.7266V90H124.571L124.298 85.9326C122.931 87.7555 120.846 89.1113 118.043 90C116.972 90.3418 115.867 90.5127 114.728 90.5127C113.611 90.5127 112.506 90.3988 111.412 90.1709C110.318 89.943 109.225 89.5671 108.131 89.043C107.06 88.5189 106.035 87.8239 105.055 86.958C104.075 86.0693 103.198 84.987 102.423 83.7109ZM123.888 59.751C122.429 59.5687 120.971 59.4775 119.513 59.4775C118.077 59.4775 116.539 59.7396 114.898 60.2637C113.258 60.765 111.856 61.5625 110.694 62.6562C108.279 64.9349 107.071 68.4098 107.071 73.0811C107.071 77.5016 108.108 80.7715 110.182 82.8906C111.754 84.4629 113.645 85.249 115.855 85.249C118.704 85.249 121.051 84.2122 122.896 82.1387C123.352 81.6146 123.683 81.1475 123.888 80.7373V59.751ZM164.664 81.3525V54.7266H171.5V90H165.348L164.732 86.2744C161.36 89.1227 157.634 90.5469 153.556 90.5469C149.226 90.5469 146.161 89.3506 144.361 86.958C142.493 84.5199 141.559 80.3158 141.559 74.3457V54.7266H148.395V74.0039C148.395 78.2194 148.998 81.0905 150.206 82.6172C151.277 83.9844 153.316 84.668 156.324 84.668C159.355 84.668 162.135 83.5628 164.664 81.3525ZM195.221 84.5996C195.973 84.873 197.112 85.0098 198.639 85.0098C200.165 85.0098 201.441 84.8275 202.467 84.4629V89.9316C201.988 90.0456 201.293 90.1139 200.382 90.1367L198.229 90.2051C197.75 90.2051 197.385 90.2051 197.135 90.2051C192.737 90.2051 189.49 88.7695 187.394 85.8984C185.707 83.5742 184.864 80.498 184.864 76.6699V59.9561H179.806V56.7432L184.864 54.7266L186.505 45.9766H191.7V54.7266H202.638V59.9561H191.7V76.6357C191.7 81.1019 192.874 83.7565 195.221 84.5996ZM209.439 72.2949C209.439 66.7578 211.205 62.2689 214.737 58.8281C218.041 55.6152 222.132 54.0088 227.008 54.0088C231.793 54.0088 235.792 55.6152 239.005 58.8281C242.423 62.2461 244.132 66.735 244.132 72.2949C244.132 77.832 242.411 82.2982 238.971 85.6934C235.712 88.929 231.713 90.5469 226.974 90.5469C222.166 90.5469 218.087 88.929 214.737 85.6934C211.205 82.2982 209.439 77.832 209.439 72.2949ZM216.549 72.2949C216.549 78.1283 218.417 82.0931 222.154 84.1895C223.476 84.9186 225.06 85.2832 226.905 85.2832C228.751 85.2832 230.312 84.9186 231.588 84.1895C232.864 83.4375 233.912 82.4577 234.732 81.25C236.259 78.9258 237.022 75.9408 237.022 72.2949C237.022 66.5072 235.188 62.5423 231.52 60.4004C230.243 59.6484 228.717 59.2725 226.939 59.2725C225.162 59.2725 223.613 59.6484 222.291 60.4004C220.992 61.1296 219.921 62.098 219.078 63.3057C217.392 65.6755 216.549 68.6719 216.549 72.2949ZM274.962 60.9814C273.709 60.6169 272.205 60.4346 270.45 60.4346C268.718 60.4346 267.294 60.6169 266.178 60.9814C265.061 61.3232 264.081 61.7448 263.238 62.2461C261.689 63.1576 260.561 64.1829 259.854 65.3223V90H253.019V54.7266H259.581L259.854 59.6143C261.563 57.4723 264.059 55.8659 267.34 54.7949C268.525 54.3848 269.881 54.1797 271.407 54.1797C272.934 54.1797 274.119 54.2936 274.962 54.5215V60.9814ZM298.204 90.5469C285.307 90.5469 278.858 84.2464 278.858 71.6455C278.858 66.2223 280.647 61.8815 284.225 58.623C287.438 55.6608 291.106 54.1797 295.23 54.1797C299.719 54.1797 303.229 55.6836 305.758 58.6914C308.105 61.4941 309.278 65.2425 309.278 69.9365V72.6025H285.968C285.968 79.0511 288.6 82.9932 293.863 84.4287C295.117 84.7705 297.042 84.9414 299.64 84.9414C302.26 84.9414 304.824 84.5882 307.33 83.8818V89.6582C304.824 90.2507 301.782 90.5469 298.204 90.5469ZM302.442 67.5781C302.442 65.3906 301.839 63.5449 300.631 62.041C299.218 60.3092 297.27 59.4434 294.786 59.4434C292.166 59.4434 290.035 60.2751 288.395 61.9385C286.891 63.488 286.139 65.3678 286.139 67.5781H302.442ZM325.445 90.5469C322.597 90.5469 319.715 90.3418 316.798 89.9316V83.8818C319.76 84.5882 322.768 84.9414 325.821 84.9414C331.928 84.9414 334.981 83.654 334.981 81.0791C334.981 80.0993 334.742 79.3701 334.264 78.8916C333.557 78.1396 332.441 77.3877 330.914 76.6357L325.924 74.3457C322.688 72.7279 320.592 71.429 319.635 70.4492C317.835 68.6263 316.935 66.4616 316.935 63.9551C316.935 61.1296 318.245 58.8281 320.865 57.0508C323.691 55.1367 327.656 54.1797 332.76 54.1797C335.335 54.1797 337.932 54.362 340.553 54.7266V60.5713C337.682 60.0472 335.175 59.7852 333.033 59.7852C330.914 59.7852 329.262 59.9219 328.077 60.1953C326.915 60.4688 326.038 60.8105 325.445 61.2207C324.511 61.8587 324.044 62.6904 324.044 63.7158C324.044 64.7184 324.363 65.5387 325.001 66.1768C325.662 66.792 326.687 67.4642 328.077 68.1934L333.102 70.6201C336.383 72.3291 338.491 73.6393 339.425 74.5508C341.202 76.2826 342.091 78.4587 342.091 81.0791C342.091 83.8818 340.678 86.1377 337.853 87.8467C334.89 89.6468 330.755 90.5469 325.445 90.5469ZM368.272 90.5469C355.375 90.5469 348.927 84.2464 348.927 71.6455C348.927 66.2223 350.715 61.8815 354.293 58.623C357.506 55.6608 361.174 54.1797 365.299 54.1797C369.788 54.1797 373.297 55.6836 375.826 58.6914C378.173 61.4941 379.347 65.2425 379.347 69.9365V72.6025H356.036C356.036 79.0511 358.668 82.9932 363.932 84.4287C365.185 84.7705 367.11 84.9414 369.708 84.9414C372.328 84.9414 374.892 84.5882 377.398 83.8818V89.6582C374.892 90.2507 371.85 90.5469 368.272 90.5469ZM372.511 67.5781C372.511 65.3906 371.907 63.5449 370.699 62.041C369.286 60.3092 367.338 59.4434 364.854 59.4434C362.234 59.4434 360.104 60.2751 358.463 61.9385C356.959 63.488 356.207 65.3678 356.207 67.5781H372.511ZM388.438 83.7109C387.687 82.4121 387.083 80.8854 386.627 79.1309C386.194 77.3763 385.978 75.0863 385.978 72.2607C385.978 69.4352 386.581 66.8376 387.789 64.4678C389.02 62.0752 390.615 60.1156 392.574 58.5889C396.38 55.6494 401.108 54.1797 406.759 54.1797C409.698 54.1797 411.92 54.248 413.424 54.3848C413.424 54.3848 414.529 54.4987 416.739 54.7266V90H410.587L410.313 85.9326C408.946 87.7555 406.861 89.1113 404.059 90C402.988 90.3418 401.882 90.5127 400.743 90.5127C399.627 90.5127 398.521 90.3988 397.428 90.1709C396.334 89.943 395.24 89.5671 394.146 89.043C393.076 88.5189 392.05 87.8239 391.07 86.958C390.09 86.0693 389.213 84.987 388.438 83.7109ZM409.903 59.751C408.445 59.5687 406.987 59.4775 405.528 59.4775C404.093 59.4775 402.555 59.7396 400.914 60.2637C399.273 60.765 397.872 61.5625 396.71 62.6562C394.295 64.9349 393.087 68.4098 393.087 73.0811C393.087 77.5016 394.124 80.7715 396.197 82.8906C397.77 84.4629 399.661 85.249 401.871 85.249C404.719 85.249 407.066 84.2122 408.912 82.1387C409.368 81.6146 409.698 81.1475 409.903 80.7373V59.751ZM450.099 60.9814C448.845 60.6169 447.341 60.4346 445.587 60.4346C443.855 60.4346 442.431 60.6169 441.314 60.9814C440.198 61.3232 439.218 61.7448 438.375 62.2461C436.826 63.1576 435.698 64.1829 434.991 65.3223V90H428.155V54.7266H434.718L434.991 59.6143C436.7 57.4723 439.195 55.8659 442.477 54.7949C443.661 54.3848 445.017 54.1797 446.544 54.1797C448.071 54.1797 449.256 54.2936 450.099 54.5215V60.9814ZM482.193 89.8975C480.826 90.3304 478.456 90.5469 475.084 90.5469C471.712 90.5469 468.84 90.1367 466.471 89.3164C464.124 88.4961 462.118 87.2884 460.455 85.6934C457.014 82.3893 455.294 77.8092 455.294 71.9531C455.294 66.2793 457.356 61.8132 461.48 58.5547C465.172 55.638 469.706 54.1797 475.084 54.1797C478.411 54.1797 480.689 54.2936 481.92 54.5215V60.6055C480.006 59.9902 477.818 59.6826 475.357 59.6826C472.919 59.6826 470.891 60.0244 469.273 60.708C467.656 61.3688 466.334 62.2689 465.309 63.4082C463.372 65.5729 462.403 68.4212 462.403 71.9531C462.403 77.9232 464.557 81.8994 468.863 83.8818C470.39 84.5882 471.882 84.9414 473.341 84.9414C474.799 84.9414 475.916 84.9072 476.69 84.8389C477.488 84.7705 478.24 84.6794 478.946 84.5654C480.45 84.3148 481.533 84.0527 482.193 83.7793V89.8975ZM507.657 60.0586C504.285 60.0586 501.277 61.2093 498.634 63.5107V90H491.798V39.1406H498.634V58.5205C502.325 55.6266 506.142 54.1797 510.084 54.1797C514.299 54.1797 517.387 55.4329 519.347 57.9395C521.397 60.5827 522.423 64.8438 522.423 70.7227V90H515.587V70.7227C515.587 65.0716 514.049 61.6992 510.973 60.6055C509.993 60.2409 508.888 60.0586 507.657 60.0586Z" fill="#528EDB"/>
<path d="M533.121 67.0312H556.363V72.2949H533.121V67.0312Z" fill="#7FB4F9"/>
<path d="M562.789 54.7266H570.069L579.127 82.7539L588.287 54.7266H595.396L604.659 82.6514L613.272 54.7266H620.04L608.18 90H601.139L591.637 63.2715L582.647 90H575.606L562.789 54.7266ZM648.341 60.9814C647.088 60.6169 645.584 60.4346 643.829 60.4346C642.097 60.4346 640.673 60.6169 639.557 60.9814C638.44 61.3232 637.46 61.7448 636.617 62.2461C635.068 63.1576 633.94 64.1829 633.233 65.3223V90H626.397V54.7266H632.96L633.233 59.6143C634.942 57.4723 637.438 55.8659 640.719 54.7949C641.904 54.3848 643.259 54.1797 644.786 54.1797C646.313 54.1797 647.498 54.2936 648.341 54.5215V60.9814ZM656.681 83.7109C655.929 82.4121 655.325 80.8854 654.869 79.1309C654.436 77.3763 654.22 75.0863 654.22 72.2607C654.22 69.4352 654.824 66.8376 656.031 64.4678C657.262 62.0752 658.857 60.1156 660.816 58.5889C664.622 55.6494 669.35 54.1797 675.001 54.1797C677.94 54.1797 680.162 54.248 681.666 54.3848C681.666 54.3848 682.771 54.4987 684.981 54.7266V90H678.829L678.556 85.9326C677.188 87.7555 675.104 89.1113 672.301 90C671.23 90.3418 670.125 90.5127 668.985 90.5127C667.869 90.5127 666.764 90.3988 665.67 90.1709C664.576 89.943 663.482 89.5671 662.389 89.043C661.318 88.5189 660.292 87.8239 659.312 86.958C658.333 86.0693 657.455 84.987 656.681 83.7109ZM678.146 59.751C676.687 59.5687 675.229 59.4775 673.771 59.4775C672.335 59.4775 670.797 59.7396 669.156 60.2637C667.516 60.765 666.114 61.5625 664.952 62.6562C662.537 64.9349 661.329 68.4098 661.329 73.0811C661.329 77.5016 662.366 80.7715 664.439 82.8906C666.012 84.4629 667.903 85.249 670.113 85.249C672.962 85.249 675.309 84.2122 677.154 82.1387C677.61 81.6146 677.94 81.1475 678.146 80.7373V59.751ZM703.268 103.672H696.432V54.7266H702.584L702.857 58.7598C704.225 56.9368 706.321 55.5811 709.146 54.6924C710.24 54.3506 711.345 54.1797 712.462 54.1797C713.601 54.1797 714.718 54.305 715.812 54.5557C716.905 54.7835 717.988 55.1709 719.059 55.7178C720.13 56.2419 721.155 56.9482 722.135 57.8369C723.115 58.7028 723.98 59.7852 724.732 61.084C726.373 63.8867 727.193 67.3617 727.193 71.5088C727.193 77.8434 725.006 82.6855 720.631 86.0352C716.757 89.0202 712.04 90.5127 706.48 90.5127H704.771C704.225 90.5127 703.723 90.5013 703.268 90.4785V103.672ZM703.268 84.9414C703.906 85.1237 705.159 85.2148 707.027 85.2148C708.896 85.2148 710.65 84.9528 712.291 84.4287C713.932 83.9046 715.322 83.0957 716.461 82.002C718.876 79.6777 720.084 76.18 720.084 71.5088C720.084 67.111 719.036 63.8639 716.939 61.7676C715.39 60.2181 713.499 59.4434 711.266 59.4434C708.463 59.4434 706.139 60.4801 704.293 62.5537C703.814 63.0778 703.473 63.5449 703.268 63.9551V84.9414ZM744.146 103.672H737.311V54.7266H743.463L743.736 58.7598C745.104 56.9368 747.2 55.5811 750.025 54.6924C751.119 54.3506 752.224 54.1797 753.341 54.1797C754.48 54.1797 755.597 54.305 756.69 54.5557C757.784 54.7835 758.867 55.1709 759.938 55.7178C761.008 56.2419 762.034 56.9482 763.014 57.8369C763.993 58.7028 764.859 59.7852 765.611 61.084C767.252 63.8867 768.072 67.3617 768.072 71.5088C768.072 77.8434 765.885 82.6855 761.51 86.0352C757.636 89.0202 752.919 90.5127 747.359 90.5127H745.65C745.104 90.5127 744.602 90.5013 744.146 90.4785V103.672ZM744.146 84.9414C744.785 85.1237 746.038 85.2148 747.906 85.2148C749.775 85.2148 751.529 84.9528 753.17 84.4287C754.811 83.9046 756.201 83.0957 757.34 82.002C759.755 79.6777 760.963 76.18 760.963 71.5088C760.963 67.111 759.915 63.8639 757.818 61.7676C756.269 60.2181 754.378 59.4434 752.145 59.4434C749.342 59.4434 747.018 60.4801 745.172 62.5537C744.693 63.0778 744.352 63.5449 744.146 63.9551V84.9414ZM794.151 90.5469C781.254 90.5469 774.806 84.2464 774.806 71.6455C774.806 66.2223 776.594 61.8815 780.172 58.623C783.385 55.6608 787.053 54.1797 791.178 54.1797C795.667 54.1797 799.176 55.6836 801.705 58.6914C804.052 61.4941 805.226 65.2425 805.226 69.9365V72.6025H781.915C781.915 79.0511 784.547 82.9932 789.811 84.4287C791.064 84.7705 792.989 84.9414 795.587 84.9414C798.207 84.9414 800.771 84.5882 803.277 83.8818V89.6582C800.771 90.2507 797.729 90.5469 794.151 90.5469ZM798.39 67.5781C798.39 65.3906 797.786 63.5449 796.578 62.041C795.165 60.3092 793.217 59.4434 790.733 59.4434C788.113 59.4434 785.982 60.2751 784.342 61.9385C782.838 63.488 782.086 65.3678 782.086 67.5781H798.39ZM835.167 60.9814C833.914 60.6169 832.41 60.4346 830.655 60.4346C828.924 60.4346 827.499 60.6169 826.383 60.9814C825.266 61.3232 824.286 61.7448 823.443 62.2461C821.894 63.1576 820.766 64.1829 820.06 65.3223V90H813.224V54.7266H819.786L820.06 59.6143C821.769 57.4723 824.264 55.8659 827.545 54.7949C828.73 54.3848 830.086 54.1797 831.612 54.1797C833.139 54.1797 834.324 54.2936 835.167 54.5215V60.9814Z" fill="#E32C2F"/>
<path d="M227.271 128.279H228.648L234.752 142H232.75L230.934 137.957H225.133L223.414 142H221.412L227.271 128.279ZM230.133 136.219L227.936 131.277L225.895 136.219H230.133ZM241.734 142V140.857C241.357 141.268 240.924 141.587 240.436 141.814C239.954 142.042 239.472 142.156 238.99 142.156C238.424 142.156 237.9 142.016 237.418 141.736C236.943 141.45 236.581 141.066 236.334 140.584C236.093 140.096 235.973 139.288 235.973 138.162V133.016H237.75V138.143C237.75 139.087 237.883 139.747 238.15 140.125C238.424 140.496 238.899 140.682 239.576 140.682C240.423 140.682 241.142 140.268 241.734 139.441V133.016H243.512V142H241.734ZM244.752 134.441L248.092 131.16V133.016H250.934V134.617H248.092V139.021C248.092 140.05 248.518 140.564 249.371 140.564C250.009 140.564 250.683 140.35 251.393 139.92V141.58C250.709 141.964 249.964 142.156 249.156 142.156C248.342 142.156 247.665 141.919 247.125 141.443C246.956 141.3 246.816 141.141 246.705 140.965C246.594 140.783 246.5 140.548 246.422 140.262C246.35 139.969 246.314 139.415 246.314 138.602V134.617H244.752V134.441ZM256.969 132.996C258.336 132.996 259.472 133.439 260.377 134.324C261.282 135.203 261.734 136.31 261.734 137.645C261.734 138.94 261.275 140.018 260.357 140.877C259.439 141.73 258.284 142.156 256.891 142.156C255.543 142.156 254.417 141.723 253.512 140.857C252.607 139.985 252.154 138.898 252.154 137.596C252.154 136.281 252.61 135.187 253.521 134.314C254.439 133.436 255.589 132.996 256.969 132.996ZM256.871 134.598C256.018 134.598 255.318 134.878 254.771 135.438C254.225 135.997 253.951 136.71 253.951 137.576C253.951 138.436 254.231 139.139 254.791 139.686C255.351 140.226 256.07 140.496 256.949 140.496C257.822 140.496 258.535 140.223 259.088 139.676C259.648 139.122 259.928 138.416 259.928 137.557C259.928 136.704 259.638 135.997 259.059 135.438C258.479 134.878 257.75 134.598 256.871 134.598ZM265.611 133.016V135.076L265.709 134.92C266.568 133.533 267.428 132.84 268.287 132.84C268.958 132.84 269.658 133.178 270.387 133.855L269.449 135.418C268.831 134.832 268.258 134.539 267.73 134.539C267.158 134.539 266.66 134.812 266.236 135.359C265.82 135.906 265.611 136.554 265.611 137.303V142H263.824V133.016H265.611ZM279.293 137.664H272.975C273.02 138.523 273.307 139.207 273.834 139.715C274.368 140.223 275.055 140.477 275.895 140.477C277.066 140.477 278.147 140.112 279.137 139.383V141.121C278.59 141.486 278.046 141.746 277.506 141.902C276.972 142.059 276.344 142.137 275.621 142.137C274.632 142.137 273.831 141.932 273.219 141.521C272.607 141.111 272.115 140.561 271.744 139.871C271.38 139.174 271.197 138.37 271.197 137.459C271.197 136.092 271.585 134.982 272.359 134.129C273.134 133.27 274.14 132.84 275.377 132.84C276.568 132.84 277.519 133.257 278.229 134.09C278.938 134.923 279.293 136.04 279.293 137.439V137.664ZM273.014 136.6H277.535C277.49 135.89 277.278 135.343 276.9 134.959C276.523 134.575 276.015 134.383 275.377 134.383C274.739 134.383 274.215 134.575 273.805 134.959C273.401 135.343 273.137 135.89 273.014 136.6ZM280.787 141.355V139.441C281.288 139.793 281.799 140.079 282.32 140.301C282.848 140.516 283.29 140.623 283.648 140.623C284.02 140.623 284.339 140.532 284.605 140.35C284.872 140.167 285.006 139.949 285.006 139.695C285.006 139.435 284.918 139.22 284.742 139.051C284.573 138.875 284.202 138.624 283.629 138.299C282.483 137.661 281.731 137.117 281.373 136.668C281.021 136.212 280.846 135.717 280.846 135.184C280.846 134.493 281.113 133.93 281.646 133.494C282.187 133.058 282.88 132.84 283.727 132.84C284.605 132.84 285.507 133.087 286.432 133.582V135.34C285.377 134.702 284.514 134.383 283.844 134.383C283.499 134.383 283.219 134.458 283.004 134.607C282.796 134.751 282.691 134.943 282.691 135.184C282.691 135.392 282.786 135.59 282.975 135.779C283.17 135.968 283.508 136.196 283.99 136.463L284.625 136.824C286.122 137.671 286.871 138.608 286.871 139.637C286.871 140.372 286.581 140.978 286.002 141.453C285.429 141.922 284.69 142.156 283.785 142.156C283.251 142.156 282.776 142.101 282.359 141.99C281.943 141.873 281.419 141.661 280.787 141.355ZM296.578 137.664H290.26C290.305 138.523 290.592 139.207 291.119 139.715C291.653 140.223 292.34 140.477 293.18 140.477C294.352 140.477 295.432 140.112 296.422 139.383V141.121C295.875 141.486 295.331 141.746 294.791 141.902C294.257 142.059 293.629 142.137 292.906 142.137C291.917 142.137 291.116 141.932 290.504 141.521C289.892 141.111 289.4 140.561 289.029 139.871C288.665 139.174 288.482 138.37 288.482 137.459C288.482 136.092 288.87 134.982 289.645 134.129C290.419 133.27 291.425 132.84 292.662 132.84C293.854 132.84 294.804 133.257 295.514 134.09C296.223 134.923 296.578 136.04 296.578 137.439V137.664ZM290.299 136.6H294.82C294.775 135.89 294.563 135.343 294.186 134.959C293.808 134.575 293.3 134.383 292.662 134.383C292.024 134.383 291.5 134.575 291.09 134.959C290.686 135.343 290.423 135.89 290.299 136.6ZM304.156 136.6V140.418C304.156 140.724 304.26 140.877 304.469 140.877C304.684 140.877 305.019 140.717 305.475 140.398V141.482C305.071 141.743 304.745 141.919 304.498 142.01C304.257 142.107 304.003 142.156 303.736 142.156C302.975 142.156 302.525 141.857 302.389 141.258C301.633 141.844 300.829 142.137 299.977 142.137C299.352 142.137 298.831 141.932 298.414 141.521C297.997 141.105 297.789 140.584 297.789 139.959C297.789 139.393 297.991 138.888 298.395 138.445C298.805 137.996 299.384 137.641 300.133 137.381L302.408 136.6V136.121C302.408 135.04 301.868 134.5 300.787 134.5C299.817 134.5 298.873 135.001 297.955 136.004V134.061C298.645 133.247 299.638 132.84 300.934 132.84C301.904 132.84 302.682 133.094 303.268 133.602C303.463 133.764 303.639 133.982 303.795 134.256C303.951 134.523 304.049 134.793 304.088 135.066C304.133 135.333 304.156 135.844 304.156 136.6ZM302.408 140.223V137.557L301.217 138.016C300.611 138.257 300.182 138.501 299.928 138.748C299.68 138.989 299.557 139.292 299.557 139.656C299.557 140.027 299.674 140.33 299.908 140.564C300.149 140.799 300.458 140.916 300.836 140.916C301.402 140.916 301.926 140.685 302.408 140.223ZM308.951 133.016V135.076L309.049 134.92C309.908 133.533 310.768 132.84 311.627 132.84C312.298 132.84 312.997 133.178 313.727 133.855L312.789 135.418C312.171 134.832 311.598 134.539 311.07 134.539C310.497 134.539 309.999 134.812 309.576 135.359C309.16 135.906 308.951 136.554 308.951 137.303V142H307.164V133.016H308.951ZM321.715 139.9V141.658C320.823 141.99 319.951 142.156 319.098 142.156C317.691 142.156 316.568 141.74 315.729 140.906C314.895 140.073 314.479 138.956 314.479 137.557C314.479 136.144 314.885 135.005 315.699 134.139C316.513 133.273 317.584 132.84 318.912 132.84C319.374 132.84 319.788 132.885 320.152 132.977C320.523 133.061 320.979 133.224 321.52 133.465V135.359C320.621 134.786 319.788 134.5 319.02 134.5C318.219 134.5 317.561 134.783 317.047 135.35C316.533 135.91 316.275 136.626 316.275 137.498C316.275 138.416 316.552 139.145 317.105 139.686C317.665 140.226 318.417 140.496 319.361 140.496C320.045 140.496 320.829 140.298 321.715 139.9ZM323.707 128.357H325.484V134.197C326.227 133.292 327.148 132.84 328.248 132.84C328.847 132.84 329.384 132.99 329.859 133.289C330.335 133.589 330.686 134.002 330.914 134.529C331.148 135.057 331.266 135.841 331.266 136.883V142H329.488V136.443C329.488 135.786 329.326 135.258 329 134.861C328.681 134.458 328.258 134.256 327.73 134.256C327.34 134.256 326.972 134.357 326.627 134.559C326.282 134.76 325.901 135.096 325.484 135.564V142H323.707V128.357ZM343.912 128.279H345.289L351.393 142H349.391L347.574 137.957H341.773L340.055 142H338.053L343.912 128.279ZM346.773 136.219L344.576 131.277L342.535 136.219H346.773ZM354.43 133.016V134.158C355.224 133.279 356.126 132.84 357.135 132.84C357.695 132.84 358.215 132.986 358.697 133.279C359.179 133.566 359.544 133.963 359.791 134.471C360.045 134.972 360.172 135.77 360.172 136.863V142H358.395V136.883C358.395 135.965 358.255 135.311 357.975 134.92C357.695 134.523 357.226 134.324 356.568 134.324C355.729 134.324 355.016 134.744 354.43 135.584V142H352.613V133.016H354.43ZM368.15 133.016H370.152L363.795 146.58H361.812L364.869 140.076L361.393 133.016H363.414L365.836 138.084L368.15 133.016ZM370.162 134.441L373.502 131.16V133.016H376.344V134.617H373.502V139.021C373.502 140.05 373.928 140.564 374.781 140.564C375.419 140.564 376.093 140.35 376.803 139.92V141.58C376.119 141.964 375.374 142.156 374.566 142.156C373.753 142.156 373.076 141.919 372.535 141.443C372.366 141.3 372.226 141.141 372.115 140.965C372.005 140.783 371.91 140.548 371.832 140.262C371.76 139.969 371.725 139.415 371.725 138.602V134.617H370.162V134.441ZM378.043 128.357H379.82V134.197C380.562 133.292 381.484 132.84 382.584 132.84C383.183 132.84 383.72 132.99 384.195 133.289C384.671 133.589 385.022 134.002 385.25 134.529C385.484 135.057 385.602 135.841 385.602 136.883V142H383.824V136.443C383.824 135.786 383.661 135.258 383.336 134.861C383.017 134.458 382.594 134.256 382.066 134.256C381.676 134.256 381.308 134.357 380.963 134.559C380.618 134.76 380.237 135.096 379.82 135.564V142H378.043V128.357ZM389 129.236C389.293 129.236 389.544 129.337 389.752 129.539C389.96 129.741 390.064 129.988 390.064 130.281C390.064 130.568 389.96 130.815 389.752 131.023C389.544 131.232 389.293 131.336 389 131.336C388.727 131.336 388.486 131.232 388.277 131.023C388.069 130.809 387.965 130.561 387.965 130.281C387.965 130.008 388.069 129.767 388.277 129.559C388.486 129.344 388.727 129.236 389 129.236ZM388.121 133.016H389.898V142H388.121V133.016ZM394.254 133.016V134.158C395.048 133.279 395.95 132.84 396.959 132.84C397.519 132.84 398.04 132.986 398.521 133.279C399.003 133.566 399.368 133.963 399.615 134.471C399.869 134.972 399.996 135.77 399.996 136.863V142H398.219V136.883C398.219 135.965 398.079 135.311 397.799 134.92C397.519 134.523 397.05 134.324 396.393 134.324C395.553 134.324 394.84 134.744 394.254 135.584V142H392.438V133.016H394.254ZM402.018 136.121C402.018 135.164 402.366 134.409 403.062 133.855C403.766 133.296 404.723 133.016 405.934 133.016H409.635V134.402H407.818C408.17 134.76 408.414 135.086 408.551 135.379C408.688 135.672 408.756 136.007 408.756 136.385C408.756 136.854 408.622 137.316 408.355 137.771C408.089 138.221 407.743 138.566 407.32 138.807C406.904 139.048 406.217 139.24 405.26 139.383C404.589 139.48 404.254 139.712 404.254 140.076C404.254 140.285 404.378 140.457 404.625 140.594C404.879 140.724 405.335 140.861 405.992 141.004C407.092 141.245 407.799 141.434 408.111 141.57C408.43 141.707 408.717 141.902 408.971 142.156C409.4 142.586 409.615 143.126 409.615 143.777C409.615 144.63 409.234 145.311 408.473 145.818C407.717 146.326 406.705 146.58 405.436 146.58C404.153 146.58 403.128 146.323 402.359 145.809C401.598 145.301 401.217 144.617 401.217 143.758C401.217 142.54 401.969 141.756 403.473 141.404C402.874 141.02 402.574 140.639 402.574 140.262C402.574 139.975 402.701 139.715 402.955 139.48C403.215 139.246 403.564 139.074 404 138.963C402.678 138.377 402.018 137.43 402.018 136.121ZM405.357 134.559C404.876 134.559 404.465 134.721 404.127 135.047C403.788 135.372 403.619 135.763 403.619 136.219C403.619 136.681 403.785 137.065 404.117 137.371C404.449 137.671 404.869 137.82 405.377 137.82C405.878 137.82 406.295 137.667 406.627 137.361C406.965 137.049 407.135 136.661 407.135 136.199C407.135 135.73 406.965 135.34 406.627 135.027C406.288 134.715 405.865 134.559 405.357 134.559ZM404.938 142.42C404.339 142.42 403.847 142.547 403.463 142.801C403.085 143.055 402.896 143.38 402.896 143.777C402.896 144.702 403.73 145.164 405.396 145.164C406.184 145.164 406.793 145.047 407.223 144.812C407.659 144.585 407.877 144.259 407.877 143.836C407.877 143.419 407.604 143.077 407.057 142.811C406.51 142.55 405.803 142.42 404.938 142.42ZM422.301 142V140.857C421.923 141.268 421.49 141.587 421.002 141.814C420.52 142.042 420.038 142.156 419.557 142.156C418.99 142.156 418.466 142.016 417.984 141.736C417.509 141.45 417.148 141.066 416.9 140.584C416.66 140.096 416.539 139.288 416.539 138.162V133.016H418.316V138.143C418.316 139.087 418.45 139.747 418.717 140.125C418.99 140.496 419.465 140.682 420.143 140.682C420.989 140.682 421.708 140.268 422.301 139.441V133.016H424.078V142H422.301ZM426.139 141.355V139.441C426.64 139.793 427.151 140.079 427.672 140.301C428.199 140.516 428.642 140.623 429 140.623C429.371 140.623 429.69 140.532 429.957 140.35C430.224 140.167 430.357 139.949 430.357 139.695C430.357 139.435 430.27 139.22 430.094 139.051C429.924 138.875 429.553 138.624 428.98 138.299C427.835 137.661 427.083 137.117 426.725 136.668C426.373 136.212 426.197 135.717 426.197 135.184C426.197 134.493 426.464 133.93 426.998 133.494C427.538 133.058 428.232 132.84 429.078 132.84C429.957 132.84 430.859 133.087 431.783 133.582V135.34C430.729 134.702 429.866 134.383 429.195 134.383C428.85 134.383 428.57 134.458 428.355 134.607C428.147 134.751 428.043 134.943 428.043 135.184C428.043 135.392 428.137 135.59 428.326 135.779C428.521 135.968 428.86 136.196 429.342 136.463L429.977 136.824C431.474 137.671 432.223 138.608 432.223 139.637C432.223 140.372 431.933 140.978 431.354 141.453C430.781 141.922 430.042 142.156 429.137 142.156C428.603 142.156 428.128 142.101 427.711 141.99C427.294 141.873 426.77 141.661 426.139 141.355ZM435.191 129.236C435.484 129.236 435.735 129.337 435.943 129.539C436.152 129.741 436.256 129.988 436.256 130.281C436.256 130.568 436.152 130.815 435.943 131.023C435.735 131.232 435.484 131.336 435.191 131.336C434.918 131.336 434.677 131.232 434.469 131.023C434.26 130.809 434.156 130.561 434.156 130.281C434.156 130.008 434.26 129.767 434.469 129.559C434.677 129.344 434.918 129.236 435.191 129.236ZM434.312 133.016H436.09V142H434.312V133.016ZM440.445 133.016V134.158C441.24 133.279 442.141 132.84 443.15 132.84C443.71 132.84 444.231 132.986 444.713 133.279C445.195 133.566 445.559 133.963 445.807 134.471C446.061 134.972 446.188 135.77 446.188 136.863V142H444.41V136.883C444.41 135.965 444.27 135.311 443.99 134.92C443.71 134.523 443.242 134.324 442.584 134.324C441.744 134.324 441.031 134.744 440.445 135.584V142H438.629V133.016H440.445ZM448.209 136.121C448.209 135.164 448.557 134.409 449.254 133.855C449.957 133.296 450.914 133.016 452.125 133.016H455.826V134.402H454.01C454.361 134.76 454.605 135.086 454.742 135.379C454.879 135.672 454.947 136.007 454.947 136.385C454.947 136.854 454.814 137.316 454.547 137.771C454.28 138.221 453.935 138.566 453.512 138.807C453.095 139.048 452.408 139.24 451.451 139.383C450.781 139.48 450.445 139.712 450.445 140.076C450.445 140.285 450.569 140.457 450.816 140.594C451.07 140.724 451.526 140.861 452.184 141.004C453.284 141.245 453.99 141.434 454.303 141.57C454.622 141.707 454.908 141.902 455.162 142.156C455.592 142.586 455.807 143.126 455.807 143.777C455.807 144.63 455.426 145.311 454.664 145.818C453.909 146.326 452.896 146.58 451.627 146.58C450.344 146.58 449.319 146.323 448.551 145.809C447.789 145.301 447.408 144.617 447.408 143.758C447.408 142.54 448.16 141.756 449.664 141.404C449.065 141.02 448.766 140.639 448.766 140.262C448.766 139.975 448.893 139.715 449.146 139.48C449.407 139.246 449.755 139.074 450.191 138.963C448.87 138.377 448.209 137.43 448.209 136.121ZM451.549 134.559C451.067 134.559 450.657 134.721 450.318 135.047C449.98 135.372 449.811 135.763 449.811 136.219C449.811 136.681 449.977 137.065 450.309 137.371C450.641 137.671 451.061 137.82 451.568 137.82C452.07 137.82 452.486 137.667 452.818 137.361C453.157 137.049 453.326 136.661 453.326 136.199C453.326 135.73 453.157 135.34 452.818 135.027C452.48 134.715 452.057 134.559 451.549 134.559ZM451.129 142.42C450.53 142.42 450.038 142.547 449.654 142.801C449.277 143.055 449.088 143.38 449.088 143.777C449.088 144.702 449.921 145.164 451.588 145.164C452.376 145.164 452.984 145.047 453.414 144.812C453.85 144.585 454.068 144.259 454.068 143.836C454.068 143.419 453.795 143.077 453.248 142.811C452.701 142.55 451.995 142.42 451.129 142.42ZM467.955 128.719H469.693L463.365 143.66H461.627L467.955 128.719ZM471.812 140.203C471.598 139.832 471.425 139.396 471.295 138.895C471.171 138.393 471.109 137.739 471.109 136.932C471.109 136.124 471.282 135.382 471.627 134.705C471.979 134.021 472.434 133.462 472.994 133.025C474.081 132.186 475.432 131.766 477.047 131.766C477.887 131.766 478.521 131.785 478.951 131.824C478.951 131.824 479.267 131.857 479.898 131.922V142H478.141L478.062 140.838C477.672 141.359 477.076 141.746 476.275 142C475.969 142.098 475.654 142.146 475.328 142.146C475.009 142.146 474.693 142.114 474.381 142.049C474.068 141.984 473.756 141.876 473.443 141.727C473.137 141.577 472.844 141.378 472.564 141.131C472.285 140.877 472.034 140.568 471.812 140.203ZM477.945 133.357C477.529 133.305 477.112 133.279 476.695 133.279C476.285 133.279 475.846 133.354 475.377 133.504C474.908 133.647 474.508 133.875 474.176 134.188C473.486 134.839 473.141 135.831 473.141 137.166C473.141 138.429 473.437 139.363 474.029 139.969C474.479 140.418 475.019 140.643 475.65 140.643C476.464 140.643 477.135 140.346 477.662 139.754C477.792 139.604 477.887 139.471 477.945 139.354V133.357ZM489.596 139.529V131.922H491.549V142H489.791L489.615 140.936C488.652 141.749 487.587 142.156 486.422 142.156C485.185 142.156 484.309 141.814 483.795 141.131C483.261 140.434 482.994 139.233 482.994 137.527V131.922H484.947V137.43C484.947 138.634 485.12 139.454 485.465 139.891C485.771 140.281 486.354 140.477 487.213 140.477C488.079 140.477 488.873 140.161 489.596 139.529ZM498.326 140.457C498.541 140.535 498.867 140.574 499.303 140.574C499.739 140.574 500.104 140.522 500.396 140.418V141.98C500.26 142.013 500.061 142.033 499.801 142.039L499.186 142.059C499.049 142.059 498.945 142.059 498.873 142.059C497.617 142.059 496.689 141.648 496.09 140.828C495.608 140.164 495.367 139.285 495.367 138.191V133.416H493.922V132.498L495.367 131.922L495.836 129.422H497.32V131.922H500.445V133.416H497.32V138.182C497.32 139.458 497.656 140.216 498.326 140.457ZM502.389 136.941C502.389 135.359 502.893 134.077 503.902 133.094C504.846 132.176 506.015 131.717 507.408 131.717C508.775 131.717 509.918 132.176 510.836 133.094C511.812 134.07 512.301 135.353 512.301 136.941C512.301 138.523 511.809 139.799 510.826 140.77C509.895 141.694 508.753 142.156 507.398 142.156C506.025 142.156 504.859 141.694 503.902 140.77C502.893 139.799 502.389 138.523 502.389 136.941ZM504.42 136.941C504.42 138.608 504.954 139.741 506.021 140.34C506.399 140.548 506.852 140.652 507.379 140.652C507.906 140.652 508.352 140.548 508.717 140.34C509.081 140.125 509.381 139.845 509.615 139.5C510.051 138.836 510.27 137.983 510.27 136.941C510.27 135.288 509.745 134.155 508.697 133.543C508.333 133.328 507.896 133.221 507.389 133.221C506.881 133.221 506.438 133.328 506.061 133.543C505.689 133.751 505.383 134.028 505.143 134.373C504.661 135.05 504.42 135.906 504.42 136.941ZM521.109 133.709C520.751 133.605 520.322 133.553 519.82 133.553C519.326 133.553 518.919 133.605 518.6 133.709C518.281 133.807 518.001 133.927 517.76 134.07C517.317 134.331 516.995 134.624 516.793 134.949V142H514.84V131.922H516.715L516.793 133.318C517.281 132.706 517.994 132.247 518.932 131.941C519.27 131.824 519.658 131.766 520.094 131.766C520.53 131.766 520.868 131.798 521.109 131.863V133.709ZM527.75 142.156C524.065 142.156 522.223 140.356 522.223 136.756C522.223 135.206 522.734 133.966 523.756 133.035C524.674 132.189 525.722 131.766 526.9 131.766C528.183 131.766 529.186 132.195 529.908 133.055C530.579 133.855 530.914 134.926 530.914 136.268V137.029H524.254C524.254 138.872 525.006 139.998 526.51 140.408C526.868 140.506 527.418 140.555 528.16 140.555C528.909 140.555 529.641 140.454 530.357 140.252V141.902C529.641 142.072 528.772 142.156 527.75 142.156ZM528.961 135.594C528.961 134.969 528.788 134.441 528.443 134.012C528.04 133.517 527.483 133.27 526.773 133.27C526.025 133.27 525.416 133.507 524.947 133.982C524.518 134.425 524.303 134.962 524.303 135.594H528.961ZM535.533 142.156C534.719 142.156 533.896 142.098 533.062 141.98V140.252C533.909 140.454 534.768 140.555 535.641 140.555C537.385 140.555 538.258 140.187 538.258 139.451C538.258 139.171 538.189 138.963 538.053 138.826C537.851 138.611 537.532 138.396 537.096 138.182L535.67 137.527C534.745 137.065 534.146 136.694 533.873 136.414C533.359 135.893 533.102 135.275 533.102 134.559C533.102 133.751 533.476 133.094 534.225 132.586C535.032 132.039 536.165 131.766 537.623 131.766C538.359 131.766 539.101 131.818 539.85 131.922V133.592C539.029 133.442 538.313 133.367 537.701 133.367C537.096 133.367 536.624 133.406 536.285 133.484C535.953 133.562 535.702 133.66 535.533 133.777C535.266 133.96 535.133 134.197 535.133 134.49C535.133 134.777 535.224 135.011 535.406 135.193C535.595 135.369 535.888 135.561 536.285 135.77L537.721 136.463C538.658 136.951 539.26 137.326 539.527 137.586C540.035 138.081 540.289 138.702 540.289 139.451C540.289 140.252 539.885 140.896 539.078 141.385C538.232 141.899 537.05 142.156 535.533 142.156ZM547.77 142.156C544.085 142.156 542.242 140.356 542.242 136.756C542.242 135.206 542.753 133.966 543.775 133.035C544.693 132.189 545.742 131.766 546.92 131.766C548.202 131.766 549.205 132.195 549.928 133.055C550.598 133.855 550.934 134.926 550.934 136.268V137.029H544.273C544.273 138.872 545.025 139.998 546.529 140.408C546.887 140.506 547.438 140.555 548.18 140.555C548.928 140.555 549.661 140.454 550.377 140.252V141.902C549.661 142.072 548.792 142.156 547.77 142.156ZM548.98 135.594C548.98 134.969 548.808 134.441 548.463 134.012C548.059 133.517 547.503 133.27 546.793 133.27C546.044 133.27 545.436 133.507 544.967 133.982C544.537 134.425 544.322 134.962 544.322 135.594H548.98ZM553.531 140.203C553.316 139.832 553.144 139.396 553.014 138.895C552.89 138.393 552.828 137.739 552.828 136.932C552.828 136.124 553.001 135.382 553.346 134.705C553.697 134.021 554.153 133.462 554.713 133.025C555.8 132.186 557.151 131.766 558.766 131.766C559.605 131.766 560.24 131.785 560.67 131.824C560.67 131.824 560.986 131.857 561.617 131.922V142H559.859L559.781 140.838C559.391 141.359 558.795 141.746 557.994 142C557.688 142.098 557.372 142.146 557.047 142.146C556.728 142.146 556.412 142.114 556.1 142.049C555.787 141.984 555.475 141.876 555.162 141.727C554.856 141.577 554.563 141.378 554.283 141.131C554.003 140.877 553.753 140.568 553.531 140.203ZM559.664 133.357C559.247 133.305 558.831 133.279 558.414 133.279C558.004 133.279 557.564 133.354 557.096 133.504C556.627 133.647 556.227 133.875 555.895 134.188C555.204 134.839 554.859 135.831 554.859 137.166C554.859 138.429 555.156 139.363 555.748 139.969C556.197 140.418 556.738 140.643 557.369 140.643C558.183 140.643 558.854 140.346 559.381 139.754C559.511 139.604 559.605 139.471 559.664 139.354V133.357ZM571.148 133.709C570.79 133.605 570.361 133.553 569.859 133.553C569.365 133.553 568.958 133.605 568.639 133.709C568.32 133.807 568.04 133.927 567.799 134.07C567.356 134.331 567.034 134.624 566.832 134.949V142H564.879V131.922H566.754L566.832 133.318C567.32 132.706 568.033 132.247 568.971 131.941C569.309 131.824 569.697 131.766 570.133 131.766C570.569 131.766 570.908 131.798 571.148 131.863V133.709ZM580.318 141.971C579.928 142.094 579.251 142.156 578.287 142.156C577.324 142.156 576.503 142.039 575.826 141.805C575.156 141.57 574.583 141.225 574.107 140.77C573.124 139.826 572.633 138.517 572.633 136.844C572.633 135.223 573.222 133.947 574.4 133.016C575.455 132.182 576.751 131.766 578.287 131.766C579.238 131.766 579.889 131.798 580.24 131.863V133.602C579.693 133.426 579.068 133.338 578.365 133.338C577.669 133.338 577.089 133.436 576.627 133.631C576.165 133.82 575.787 134.077 575.494 134.402C574.941 135.021 574.664 135.835 574.664 136.844C574.664 138.549 575.279 139.686 576.51 140.252C576.946 140.454 577.372 140.555 577.789 140.555C578.206 140.555 578.525 140.545 578.746 140.525C578.974 140.506 579.189 140.48 579.391 140.447C579.82 140.376 580.13 140.301 580.318 140.223V141.971ZM587.594 133.445C586.63 133.445 585.771 133.774 585.016 134.432V142H583.062V127.469H585.016V133.006C586.07 132.179 587.161 131.766 588.287 131.766C589.492 131.766 590.374 132.124 590.934 132.84C591.52 133.595 591.812 134.812 591.812 136.492V142H589.859V136.492C589.859 134.878 589.42 133.914 588.541 133.602C588.261 133.497 587.945 133.445 587.594 133.445ZM594.869 135.438H601.51V136.941H594.869V135.438ZM603.346 131.922H605.426L608.014 139.93L610.631 131.922H612.662L615.309 139.9L617.77 131.922H619.703L616.314 142H614.303L611.588 134.363L609.02 142H607.008L603.346 131.922ZM627.789 133.709C627.431 133.605 627.001 133.553 626.5 133.553C626.005 133.553 625.598 133.605 625.279 133.709C624.96 133.807 624.68 133.927 624.439 134.07C623.997 134.331 623.674 134.624 623.473 134.949V142H621.52V131.922H623.395L623.473 133.318C623.961 132.706 624.674 132.247 625.611 131.941C625.95 131.824 626.337 131.766 626.773 131.766C627.21 131.766 627.548 131.798 627.789 131.863V133.709ZM630.172 140.203C629.957 139.832 629.785 139.396 629.654 138.895C629.531 138.393 629.469 137.739 629.469 136.932C629.469 136.124 629.641 135.382 629.986 134.705C630.338 134.021 630.794 133.462 631.354 133.025C632.441 132.186 633.792 131.766 635.406 131.766C636.246 131.766 636.881 131.785 637.311 131.824C637.311 131.824 637.626 131.857 638.258 131.922V142H636.5L636.422 140.838C636.031 141.359 635.436 141.746 634.635 142C634.329 142.098 634.013 142.146 633.688 142.146C633.368 142.146 633.053 142.114 632.74 142.049C632.428 141.984 632.115 141.876 631.803 141.727C631.497 141.577 631.204 141.378 630.924 141.131C630.644 140.877 630.393 140.568 630.172 140.203ZM636.305 133.357C635.888 133.305 635.471 133.279 635.055 133.279C634.645 133.279 634.205 133.354 633.736 133.504C633.268 133.647 632.867 133.875 632.535 134.188C631.845 134.839 631.5 135.831 631.5 137.166C631.5 138.429 631.796 139.363 632.389 139.969C632.838 140.418 633.378 140.643 634.01 140.643C634.824 140.643 635.494 140.346 636.021 139.754C636.152 139.604 636.246 139.471 636.305 139.354V133.357ZM643.482 145.906H641.529V131.922H643.287L643.365 133.074C643.756 132.553 644.355 132.166 645.162 131.912C645.475 131.814 645.79 131.766 646.109 131.766C646.435 131.766 646.754 131.801 647.066 131.873C647.379 131.938 647.688 132.049 647.994 132.205C648.3 132.355 648.593 132.557 648.873 132.811C649.153 133.058 649.4 133.367 649.615 133.738C650.084 134.539 650.318 135.532 650.318 136.717C650.318 138.527 649.693 139.91 648.443 140.867C647.337 141.72 645.989 142.146 644.4 142.146H643.912C643.756 142.146 643.613 142.143 643.482 142.137V145.906ZM643.482 140.555C643.665 140.607 644.023 140.633 644.557 140.633C645.09 140.633 645.592 140.558 646.061 140.408C646.529 140.258 646.926 140.027 647.252 139.715C647.942 139.051 648.287 138.051 648.287 136.717C648.287 135.46 647.988 134.533 647.389 133.934C646.946 133.491 646.406 133.27 645.768 133.27C644.967 133.27 644.303 133.566 643.775 134.158C643.639 134.308 643.541 134.441 643.482 134.559V140.555ZM655.162 145.906H653.209V131.922H654.967L655.045 133.074C655.436 132.553 656.035 132.166 656.842 131.912C657.154 131.814 657.47 131.766 657.789 131.766C658.115 131.766 658.434 131.801 658.746 131.873C659.059 131.938 659.368 132.049 659.674 132.205C659.98 132.355 660.273 132.557 660.553 132.811C660.833 133.058 661.08 133.367 661.295 133.738C661.764 134.539 661.998 135.532 661.998 136.717C661.998 138.527 661.373 139.91 660.123 140.867C659.016 141.72 657.669 142.146 656.08 142.146H655.592C655.436 142.146 655.292 142.143 655.162 142.137V145.906ZM655.162 140.555C655.344 140.607 655.702 140.633 656.236 140.633C656.77 140.633 657.271 140.558 657.74 140.408C658.209 140.258 658.606 140.027 658.932 139.715C659.622 139.051 659.967 138.051 659.967 136.717C659.967 135.46 659.667 134.533 659.068 133.934C658.626 133.491 658.085 133.27 657.447 133.27C656.646 133.27 655.982 133.566 655.455 134.158C655.318 134.308 655.221 134.441 655.162 134.559V140.555ZM669.449 142.156C665.764 142.156 663.922 140.356 663.922 136.756C663.922 135.206 664.433 133.966 665.455 133.035C666.373 132.189 667.421 131.766 668.6 131.766C669.882 131.766 670.885 132.195 671.607 133.055C672.278 133.855 672.613 134.926 672.613 136.268V137.029H665.953C665.953 138.872 666.705 139.998 668.209 140.408C668.567 140.506 669.117 140.555 669.859 140.555C670.608 140.555 671.34 140.454 672.057 140.252V141.902C671.34 142.072 670.471 142.156 669.449 142.156ZM670.66 135.594C670.66 134.969 670.488 134.441 670.143 134.012C669.739 133.517 669.182 133.27 668.473 133.27C667.724 133.27 667.115 133.507 666.646 133.982C666.217 134.425 666.002 134.962 666.002 135.594H670.66ZM681.168 133.709C680.81 133.605 680.38 133.553 679.879 133.553C679.384 133.553 678.977 133.605 678.658 133.709C678.339 133.807 678.059 133.927 677.818 134.07C677.376 134.331 677.053 134.624 676.852 134.949V142H674.898V131.922H676.773L676.852 133.318C677.34 132.706 678.053 132.247 678.99 131.941C679.329 131.824 679.716 131.766 680.152 131.766C680.589 131.766 680.927 131.798 681.168 131.863V133.709Z" fill="#6B6A6A"/>
</svg>
